<?xml version="1.0" standalone="no"?><!DOCTYPE svg PUBLIC "-//W3C//DTD SVG 1.1//EN" "http://www.w3.org/Graphics/SVG/1.1/DTD/svg11.dtd"><svg t="1604820605580" class="icon" viewBox="0 0 1024 1024" version="1.1" xmlns="http://www.w3.org/2000/svg" p-id="3431" xmlns:xlink="http://www.w3.org/1999/xlink" width="200" height="200"><defs><style type="text/css"></style></defs><path d="M85.333333 512A426.666667 426.666667 0 1 0 512 85.333333 426.666667 426.666667 0 0 0 85.333333 512z m506.026667-157.44l122.026667 128a20.906667 20.906667 0 0 1 4.266666 6.4 23.04 23.04 0 0 1 4.266667 6.826667 40.106667 40.106667 0 0 1 0 32.426666 42.666667 42.666667 0 0 1-8.96 14.08l-128 128a42.666667 42.666667 0 0 1-60.586667-60.586666l55.466667-55.04H341.333333a42.666667 42.666667 0 0 1 0-85.333334h241.493334l-53.333334-55.893333a42.666667 42.666667 0 0 1 61.866667-58.88z" p-id="3432"></path></svg>